<?xml version="1.0" standalone="no"?>
<!DOCTYPE svg PUBLIC "-//W3C//DTD SVG 20010904//EN"
 "http://www.w3.org/TR/2001/REC-SVG-20010904/DTD/svg10.dtd">
<svg version="1.0" xmlns="http://www.w3.org/2000/svg"
 width="700.000000pt" height="700.000000pt" viewBox="0 0 700.000000 700.000000"
 preserveAspectRatio="xMidYMid meet">
<metadata>
Created by potrace 1.11, written by Peter Selinger 2001-2013
</metadata>
<g transform="translate(0.000000,700.000000) scale(0.100000,-0.100000)"
fill="#000000" stroke="none">
<path d="M0 3500 l0 -3500 3500 0 3500 0 0 3500 0 3500 -3500 0 -3500 0 0
-3500z m3718 1450 l407 0 610 -872 610 -871 3 84 c2 46 2 338 0 649 l-3 565
-24 60 c-17 43 -42 77 -85 120 -86 86 -167 120 -328 140 l-48 6 0 60 0 59 560
0 560 0 0 -59 0 -60 -47 -5 c-75 -9 -167 -33 -219 -57 -73 -34 -166 -131 -195
-204 l-24 -60 -3 -1173 -3 -1173 -71 3 -72 3 -710 1022 c-391 562 -714 1023
-718 1023 -12 0 -10 -1468 2 -1529 14 -73 35 -114 92 -177 75 -82 217 -144
331 -144 l47 0 0 -65 0 -65 -555 0 -555 0 0 65 0 65 46 0 c158 0 336 106 401
239 l28 56 3 891 2 890 -98 150 c-54 83 -114 166 -134 185 -40 40 -93 59 -167
59 l-51 0 1 -62 c0 -35 6 -241 13 -458 7 -217 11 -398 9 -402 -7 -14 -113 -9
-117 5 -2 6 -11 53 -20 102 -78 412 -246 685 -481 785 -58 24 -67 25 -325 28
-258 3 -266 3 -287 -18 l-23 -21 0 -556 0 -555 123 4 c97 3 132 9 170 26 127
57 257 265 276 442 l6 55 63 3 62 3 0 -596 0 -596 -62 3 -63 3 -7 60 c-19 171
-142 373 -264 435 -43 22 -65 25 -176 28 l-128 4 0 -576 c0 -563 0 -576 20
-596 19 -19 33 -20 215 -20 l195 0 0 -60 0 -60 -680 0 -680 0 0 54 0 54 161 4
c155 3 161 4 180 27 18 23 19 57 19 1215 0 655 -4 1196 -8 1202 -18 28 -56 34
-201 34 l-151 0 0 60 0 60 1068 2 c587 2 1073 2 1080 1 8 -2 197 -3 420 -3z"/>
</g>
</svg>
