<?xml version="1.0" encoding="utf-8"?>
<!-- Generator: Adobe Illustrator 19.0.0, SVG Export Plug-In . SVG Version: 6.00 Build 0)  -->
<svg version="1.1" id="Layer_1" xmlns="http://www.w3.org/2000/svg" xmlns:xlink="http://www.w3.org/1999/xlink" x="0px" y="0px"
	 viewBox="0 0 240.4 240.4" style="enable-background:new 0 0 240.4 240.4;" xml:space="preserve">
<style type="text/css">
	.st0{fill:#645495;stroke:#645495;stroke-width:18;stroke-miterlimit:10;}
	.st1{fill:#FFFFFF;}
</style>
<g id="XMLID_3_">
	<rect id="XMLID_15_" x="9" y="9" class="st0" width="222.4" height="222.4"/>
	<g id="XMLID_1_">
		<path id="XMLID_2_" class="st1" d="M39.5,159.6h9.2c1.2,0,2.1-0.2,2.5-0.7c0.4-0.5,0.7-1.3,0.7-2.4V77.7c0-1.2-0.2-2.1-0.7-2.5
			c-0.4-0.4-1.3-0.7-2.5-0.7h-9.2v-4.2h74l1.1,36h-4.2c0-0.7-0.4-3.1-1.3-7.1c-0.9-4-2-7.5-3.4-10.4c-1.8-3.9-4.3-7.3-7.4-10.1
			c-3.1-2.8-6.6-4.2-10.4-4.2H74.4c-1.1,0-1.9,0.2-2.4,0.7c-0.5,0.4-0.7,1.3-0.7,2.5v36.2H78c2.4,0,4.5-1,6.6-2.9
			c2-1.9,3.6-4.3,4.8-7.2c1.2-2.8,1.8-5.5,1.8-8.1h4.2v41.1h-4.2c0-2.6-0.6-5.4-1.8-8.2c-1.2-2.8-2.8-5.2-4.8-7.2
			c-2-1.9-4.2-2.9-6.6-2.9h-6.7v37.8c0,1.1,0.2,1.9,0.7,2.4c0.5,0.5,1.3,0.7,2.4,0.7h11.9v4.2H39.5V159.6z"/>
		<path id="XMLID_6_" class="st1" d="M134.8,95.9h-0.5v50c0,4,1.6,7.3,4.7,9.8c3.1,2.5,7.1,3.8,11.9,3.8v4.2h-38.3v-4.2
			c4.8,0,8.8-1.3,11.9-3.8c3.1-2.5,4.7-5.8,4.7-9.8V89.9c0-1-0.1-1.7-0.3-2.1c-0.2-0.4-0.6-1.1-1.2-2l-5.3-7.9
			c-0.9-1.3-1.8-2.2-2.9-2.7c-1.1-0.5-2.6-0.7-4.6-0.7h-2.4v-4.2h29.1l42,60V88.2c0-4-1.6-7.3-4.7-9.8c-3.1-2.5-7.1-3.8-11.9-3.8
			v-4.2h38.3v4.2c-4.8,0-8.8,1.3-11.9,3.8c-3.1,2.5-4.7,5.8-4.7,9.8v78h-5L134.8,95.9z"/>
	</g>
</g>
</svg>
